<svg id="Layer_1" data-name="Layer 1" xmlns="http://www.w3.org/2000/svg" viewBox="0 0 60 60"><defs><style>.cls-1{fill:none;stroke:#ffd910;stroke-miterlimit:10;stroke-width:4px;}.cls-2{fill:#ffd910;}.cls-3{font-size:9.1px;fill:#fff;font-family:FuturaStd-CondensedExtraBd, Futura Std;font-weight:700;}</style></defs><title>tbt advantages-1</title><line class="cls-1" x1="9.87" y1="25.67" x2="50.13" y2="25.67"/><path class="cls-2" d="M39.58,32.18H50.13a0,0,0,0,1,0,0V41a0,0,0,0,1,0,0H39.58a4.41,4.41,0,0,1-4.41-4.41v0A4.41,4.41,0,0,1,39.58,32.18Z"/><path class="cls-1" d="M21.88,25.67a11.17,11.17,0,1,1,16.24,0"/><text class="cls-3" transform="translate(24.79 20.54)">Rp</text><path class="cls-1" d="M41,16.39h9.09V48H9.87V23.87a7.48,7.48,0,0,1,7.48-7.48H19"/></svg>