<svg id="Layer_1" data-name="Layer 1" xmlns="http://www.w3.org/2000/svg" viewBox="0 0 60 60"><defs><style>.cls-1{fill:#ffd910;}.cls-2{fill:none;stroke:#fff;stroke-linecap:round;stroke-miterlimit:10;stroke-width:2px;}</style></defs><title>tbt advantages-1</title><path class="cls-1" d="M54.62,39.41a13.08,13.08,0,0,0-8-5.42c-.77-.18-1.85-.37-2.19-.92-1.66-2.71-3.12-5.53-4.65-8.32,2.53-1.05,2.83-1.56,2.45-3.42-.47-2.32-2.14-1.66-3.58-1.52a5.91,5.91,0,0,0-2.75.53c-3.07,2.23-5.4,1.12-7.58-1.34a5.64,5.64,0,0,0-1.88-1.69c-1.41-.49-3.19-1.25-4.34-.76a5.29,5.29,0,0,0-2.5,3.62,36.19,36.19,0,0,0,0,7.36c.11,2.6,1.62,4,4.18,4.07,1.87.08,3.75,0,5.78,0a69,69,0,0,0,1.28,8,1.78,1.78,0,0,0,.56.81A2.31,2.31,0,0,0,35,39.74a1.42,1.42,0,0,0,.14-.59,48.52,48.52,0,0,0-.8-6.75c-.85-6-.83-5.31-6-5.48-.16,0-.32-.16-.53-.27V24.84a38.13,38.13,0,0,0,5.32.57c1.7-.06,2.85.53,3.18,2.09a58.06,58.06,0,0,1,1.54,9.38c.21,5.24-4.41,7.94-9.11,5.58-2.37-1.19-3.09-4-1.55-5.57h0A2.46,2.46,0,0,0,26.43,33a2.35,2.35,0,0,0-.88-.23c-4.63-.2-9.27,0-13.9-.15-2.57-.06-4.29.43-4,3.55,0,.63-.56,1.34-.91,2a33.54,33.54,0,0,0-2,3.73A2.92,2.92,0,0,0,7.6,46c3.31.06,6.63,0,10,0H39.8a7.06,7.06,0,0,0,6.63,6.57H47l.3,0a7,7,0,0,0,2.41-.6,6,6,0,0,0,2.06-1.41l.13-.14,0,0a7.06,7.06,0,0,0,1.93-4.84,7.26,7.26,0,0,0-.42-2.38C56.14,42.62,55.86,41.19,54.62,39.41Z"/><path class="cls-1" d="M23.28,14.78c.49-.24.61-1.35.76-2.1a4.58,4.58,0,0,0-.24-1.45l3.51-.72c-.4-2.09-1.64-3.42-3.46-3.11-1.44.24-3.38,1.28-3.85,2.46s.45,3.07,1.08,4.51C21.27,14.79,22.72,15.06,23.28,14.78Z"/><path class="cls-1" d="M9.64,47.74H8.87a7.08,7.08,0,0,0,5,4.67,6.35,6.35,0,0,0,3.95-.16,7.07,7.07,0,0,0,4.47-4.51H9.64Z"/><line class="cls-2" x1="5.33" y1="21.02" x2="17" y2="21.02"/><line class="cls-2" x1="7.75" y1="24.81" x2="17" y2="24.81"/><line class="cls-2" x1="6.04" y1="28.6" x2="17" y2="28.6"/></svg>